<svg xmlns="http://www.w3.org/2000/svg" width="42.146" height="32.985" viewBox="0 0 42.146 32.985">
  <g id="binoculars" transform="translate(0.001 -97.392)">
    <path id="Path_37" data-name="Path 37" d="M51.994,282.456a2.884,2.884,0,0,1-1.181-1.734,3.828,3.828,0,0,1,.111-2.309,1.076,1.076,0,0,0-.331-1.252.661.661,0,0,0-.966.43c-.914,2.425-.138,5.362,1.733,6.548a.591.591,0,0,0,.317.1.734.734,0,0,0,.651-.525A1.078,1.078,0,0,0,51.994,282.456Z" transform="translate(-45.024 -159.721)" fill="#208c7b"/>
    <path id="Path_38" data-name="Path 38" d="M41.328,115.47a10.64,10.64,0,0,0-1.651-2.907s-5.392-8.892-7.117-11.932c-1.577-2.78-4.27-4.133-6.708-2.589s-3.5,5.229-2.54,8.449l.761,3.83h-6l.759-3.83c.958-3.22-.1-6.9-2.54-8.449s-5.1-.161-6.705,2.589c-1.928,3.3-7.118,11.932-7.118,11.932A10.681,10.681,0,0,0,.815,115.47a13.1,13.1,0,0,0-.379,7.911,9.887,9.887,0,0,0,4.048,5.943,6.479,6.479,0,0,0,3.508,1.055c3.079,0,5.83-2.225,7.184-5.808a12.56,12.56,0,0,0,.66-2.6l4.077,2.345a2.274,2.274,0,0,0,2.323,0l4.075-2.345a12.447,12.447,0,0,0,.661,2.6c1.351,3.582,4.106,5.808,7.185,5.808h0a6.478,6.478,0,0,0,3.506-1.055,9.887,9.887,0,0,0,4.048-5.943A13.088,13.088,0,0,0,41.328,115.47Zm-28.749,7.455c-.864,2.288-2.622,3.709-4.587,3.709a4.13,4.13,0,0,1-2.238-.675,6.312,6.312,0,0,1-2.585-3.794,8.365,8.365,0,0,1,.243-5.049c.864-2.288,2.622-3.709,4.589-3.709a4.13,4.13,0,0,1,2.238.675C12.764,115.683,13.815,119.649,12.579,122.924Zm8.493-3.32a2.661,2.661,0,0,1,0-5.149,2.662,2.662,0,0,1,0,5.149Zm17.9,2.561a6.31,6.31,0,0,1-2.583,3.794,4.128,4.128,0,0,1-2.236.675c-1.967,0-3.725-1.422-4.589-3.709-1.236-3.275-.186-7.242,2.342-8.843a4.125,4.125,0,0,1,2.236-.675c1.966,0,3.724,1.422,4.587,3.709A8.344,8.344,0,0,1,38.974,122.164Z" transform="translate(0)" fill="#208c7b"/>
    <path id="Path_39" data-name="Path 39" d="M407.556,277.15a1.077,1.077,0,0,0-.332,1.252,3.825,3.825,0,0,1,.111,2.309,2.887,2.887,0,0,1-1.182,1.734,1.077,1.077,0,0,0-.33,1.253.728.728,0,0,0,.649.525.581.581,0,0,0,.316-.1c1.871-1.187,2.65-4.124,1.734-6.548A.658.658,0,0,0,407.556,277.15Z" transform="translate(-370.98 -159.711)" fill="#208c7b"/>
  </g>
</svg>
