<svg xmlns="http://www.w3.org/2000/svg" width="29.23" height="33.578" viewBox="0 0 29.23 33.578">
  <g id="compass" transform="translate(-31.914)">
    <path id="Path_45" data-name="Path 45" d="M50.806,4.988v-1.6a1.692,1.692,0,1,0,0-3.383H42.253a1.692,1.692,0,1,0,0,3.383v1.6a14.614,14.614,0,1,0,8.553,0ZM46.528,31.416A12.453,12.453,0,1,1,58.983,18.963,12.467,12.467,0,0,1,46.528,31.416Z" transform="translate(0)" fill="#208c7b"/>
    <path id="Path_46" data-name="Path 46" d="M91.531,112.114a11.326,11.326,0,1,0,11.327,11.326A11.337,11.337,0,0,0,91.531,112.114Zm7.51,12.453H93.855l1.846,1.846a.846.846,0,1,1-1.2,1.2l-1.846-1.846v5.184a1.128,1.128,0,1,1-2.255,0v-5.184l-1.845,1.845a.846.846,0,0,1-1.2-1.2l1.846-1.846H84.024a1.128,1.128,0,1,1,0-2.256h5.183l-1.846-1.846a.846.846,0,0,1,1.2-1.2l1.846,1.846v-5.183a1.128,1.128,0,1,1,2.256,0v5.184l1.847-1.846a.846.846,0,0,1,1.2,1.2l-1.846,1.846h5.184a1.128,1.128,0,0,1,0,2.256Z" transform="translate(-45.003 -104.476)" fill="#208c7b"/>
  </g>
</svg>
