<svg xmlns="http://www.w3.org/2000/svg" width="3" height="3" viewBox="0 0 10 50">
  <path id="Icon_awesome-hourglass-end" data-name="Icon awesome-hourglass-end" d="M2.813.375C2.916.375,3,.312,3,.234V.141C3,.063,2.916,0,2.813,0H.188C.084,0,0,.063,0,.141V.234C0,.312.084.375.188.375A1.2,1.2,0,0,0,1.132,1.5,1.2,1.2,0,0,0,.188,2.625c-.1,0-.187.063-.187.141v.094C0,2.937.084,3,.188,3H2.813C2.916,3,3,2.937,3,2.859V2.766c0-.078-.084-.141-.187-.141A1.2,1.2,0,0,0,1.868,1.5,1.2,1.2,0,0,0,2.813.375ZM1.5,1.219A.834.834,0,0,1,.688.375H2.312A.834.834,0,0,1,1.5,1.219Z" fill="#4a9589"/>
</svg>
