<svg xmlns="http://www.w3.org/2000/svg" width="85.034" height="61.605" viewBox="0 0 85.034 61.605">
  <g id="Group_25" data-name="Group 25" transform="translate(-15.466 -9.447)">
    <path id="mountains" d="M83.17,125.019c-6.279-8.846-25.536-36.2-25.536-36.2a2.777,2.777,0,0,0-4.167-.427l-5.046,4.723L36.58,71.138a2.781,2.781,0,0,0-2.409-1.46,2.737,2.737,0,0,0-2.447,1.393L.369,125.617a2.777,2.777,0,0,0,2.409,4.163h78.39a.234.234,0,0,1,.054,0A2.777,2.777,0,0,0,84,127,3.454,3.454,0,0,0,83.17,125.019ZM49.587,99.635l5.345-5.007,10.627,15.066L56.543,100.3a.782.782,0,0,0-1.117-.011L49,106.713a.78.78,0,0,1-1.332-.555l.025-5.84A2.735,2.735,0,0,0,49.587,99.635ZM34.055,78.167l6.894,12.791-5.177,4.566a.778.778,0,0,1-1.128-.1l-3.318-4.211a.781.781,0,0,0-1.275.068l-5.017,8a.783.783,0,0,1-1.389-.128l-.673-1.7Z" transform="translate(16 -59.728)" fill="#dedddd" stroke="#8c5320" stroke-width="1"/>
    <text id="Hike_Adventure" data-name="Hike   Adventure" transform="translate(20.5 43.052)" fill="#8c5320" font-size="12" font-family="Montserrat-ExtraBold, Montserrat" font-weight="800"><tspan x="20.962" y="12" xml:space="preserve">Hike   </tspan><tspan x="1.666" y="25">Adventure</tspan></text>
  </g>
</svg>
