<svg xmlns="http://www.w3.org/2000/svg" width="98" height="35" viewBox="0 0 98 35">
  <g id="Group_30" data-name="Group 30" transform="translate(-69.04 -1819.578)">
    <g id="Rectangle_67" data-name="Rectangle 67" transform="translate(69.04 1824.578)" stroke="#dedddd" stroke-width="1">
      <rect width="98" height="30" rx="5" stroke="none"/>
      <rect x="0.5" y="0.5" width="97" height="29" rx="4.5" fill="none"/>
    </g>
    <path id="Icon_awesome-apple" data-name="Icon awesome-apple" d="M14.29,12.787a4.156,4.156,0,0,1,2.226-3.775,4.783,4.783,0,0,0-3.77-1.985c-1.58-.125-3.307.921-3.94.921-.668,0-2.2-.877-3.4-.877C2.921,7.111.281,9.052.281,13a11.1,11.1,0,0,0,.641,3.615c.57,1.634,2.626,5.64,4.772,5.573,1.122-.027,1.914-.8,3.374-.8,1.416,0,2.15.8,3.4.8,2.163-.031,4.024-3.672,4.567-5.311a4.413,4.413,0,0,1-2.747-4.091ZM11.77,5.477A4.193,4.193,0,0,0,12.839,2.25,4.72,4.72,0,0,0,9.816,3.8,4.258,4.258,0,0,0,8.677,7,3.739,3.739,0,0,0,11.77,5.477Z" transform="translate(75.405 1827.359)" fill="#fff"/>
    <text id="Download_on_the_app_" data-name="Download on the  app " transform="translate(99.04 1819.578)" fill="#fff" font-size="6" font-family="Optima-Bold, Optima" font-weight="700"><tspan x="0" y="14" xml:space="preserve">Download on the  app</tspan><tspan y="14" font-size="15"> </tspan></text>
    <text id="App_Store" data-name="App Store" transform="translate(98.04 1833.578)" fill="#fff" font-size="14" font-family="Optima-Bold, Optima" font-weight="700"><tspan x="0" y="13">App Store</tspan></text>
  </g>
</svg>
