<svg xmlns="http://www.w3.org/2000/svg" width="33.04" height="32.985" viewBox="0 0 33.04 32.985">
  <g id="signpost" transform="translate(0.001 -0.409)">
    <path id="Path_40" data-name="Path 40" d="M181.046,30.654h-2.18V5.428a2.7,2.7,0,1,0-2.74,0V30.654h-2.18a1.37,1.37,0,1,0,0,2.74h7.1a1.37,1.37,0,1,0,0-2.74Z" transform="translate(-160.976 0)" fill="#208c7b"/>
    <path id="Path_41" data-name="Path 41" d="M13.394,107.513H3.268a.746.746,0,0,0-.532.223l-2.52,2.556a.745.745,0,0,0,.028,1.076l2.5,2.285a.745.745,0,0,0,.5.2H13.394v-6.335Z" transform="translate(0 -99.904)" fill="#208c7b"/>
    <path id="Path_42" data-name="Path 42" d="M305.45,219.944l-2.522-2.555a.746.746,0,0,0-.532-.223H292.271V223.5h10.148a.748.748,0,0,0,.5-.2l2.5-2.285a.749.749,0,0,0,.028-1.076Z" transform="translate(-272.624 -202.186)" fill="#208c7b"/>
  </g>
</svg>
